HIERARCHY
ROOT Hips
{
	OFFSET 0.000000 0.000000 0.000000
	CHANNELS 6 Xposition Yposition Zposition Zrotation Yrotation Xrotation
	JOINT LHipJoint
	{
		OFFSET 0.000000 0.000000 0.000000
		CHANNELS 3 Zrotation Yrotation Xrotation
		JOINT LeftUpLeg
		{
			OFFSET 1.363060 -1.794630 0.839290
			CHANNELS 3 Zrotation Yrotation Xrotation
			JOINT LeftLeg
			{
				OFFSET 2.448110 -6.726130 0.000000
				CHANNELS 3 Zrotation Yrotation Xrotation
				JOINT LeftFoot
				{
					OFFSET 2.562200 -7.039590 0.000000
					CHANNELS 3 Zrotation Yrotation Xrotation
					JOINT LeftToeBase
					{
						OFFSET 0.157640 -0.433110 2.322550
						CHANNELS 3 Zrotation Yrotation Xrotation
						End Site
						{
							OFFSET 0.000000 0.000000 0.000000
						}
					}
				}
			}
		}
	}
	JOINT RHipJoint
	{
		OFFSET 0.000000 0.000000 0.000000
		CHANNELS 3 Zrotation Yrotation Xrotation
		JOINT RightUpLeg
		{
			OFFSET -1.305520 -1.794630 0.839290
			CHANNELS 3 Zrotation Yrotation Xrotation
			JOINT RightLeg
			{
				OFFSET -2.542530 -6.985550 0.000000
				CHANNELS 3 Zrotation Yrotation Xrotation
				JOINT RightFoot
				{
					OFFSET -2.568260 -7.056230 0.000000
					CHANNELS 3 Zrotation Yrotation Xrotation
					JOINT RightToeBase
					{
						OFFSET -0.164730 -0.452590 2.363150
						CHANNELS 3 Zrotation Yrotation Xrotation
						End Site
						{
							OFFSET 0.000000 0.000000 0.000000
						}
					}
				}
			}
		}
	}
	JOINT LowerBack
	{
		OFFSET 0.000000 0.000000 0.000000
		CHANNELS 3 Zrotation Yrotation Xrotation
		JOINT Spine
		{
			OFFSET 0.028270 2.035590 -0.193380
			CHANNELS 3 Zrotation Yrotation Xrotation
			JOINT Spine1
			{
				OFFSET 0.056720 2.048850 -0.042750
				CHANNELS 3 Zrotation Yrotation Xrotation
				JOINT Neck
				{
					OFFSET 0.000000 0.000000 0.000000
					CHANNELS 3 Zrotation Yrotation Xrotation
					JOINT Neck1
					{
						OFFSET -0.054170 1.746240 0.172020
						CHANNELS 3 Zrotation Yrotation Xrotation
						JOINT Head
						{
							OFFSET 0.104070 1.761360 -0.123970
							CHANNELS 3 Zrotation Yrotation Xrotation
							End Site
							{
								OFFSET 0.000000 0.000000 0.000000
							}
						}
					}
				}
				JOINT LeftShoulder
				{
					OFFSET 0.000000 0.000000 0.000000
					CHANNELS 3 Zrotation Yrotation Xrotation
					JOINT LeftArm
					{
						OFFSET 3.362410 1.200890 -0.311210
						CHANNELS 3 Zrotation Yrotation Xrotation
						JOINT LeftForeArm
						{
							OFFSET 4.983000 -0.000000 -0.000000
							CHANNELS 3 Zrotation Yrotation Xrotation
							JOINT LeftHand
							{
								OFFSET 3.483560 -0.000000 -0.000000
								CHANNELS 3 Zrotation Yrotation Xrotation
								JOINT LeftFingerBase
								{
									OFFSET 0.000000 0.000000 0.000000
									CHANNELS 3 Zrotation Yrotation Xrotation
									JOINT LeftHandIndex1
									{
										OFFSET 0.715260 -0.000000 -0.000000
										CHANNELS 3 Zrotation Yrotation Xrotation
										End Site
										{
											OFFSET 0.000000 0.000000 0.000000
										}
									}
								}
								JOINT LThumb
								{
									OFFSET 0.000000 0.000000 0.000000
									CHANNELS 3 Zrotation Yrotation Xrotation
									End Site
									{
										OFFSET 0.000000 0.000000 0.000000
									}
								}
							}
						}
					}
				}
				JOINT RightShoulder
				{
					OFFSET 0.000000 0.000000 0.000000
					CHANNELS 3 Zrotation Yrotation Xrotation
					JOINT RightArm
					{
						OFFSET -3.136600 1.374050 -0.404650
						CHANNELS 3 Zrotation Yrotation Xrotation
						JOINT RightForeArm
						{
							OFFSET -5.241900 -0.000000 -0.000000
							CHANNELS 3 Zrotation Yrotation Xrotation
							JOINT RightHand
							{
								OFFSET -3.444170 -0.000000 -0.000000
								CHANNELS 3 Zrotation Yrotation Xrotation
								JOINT RightFingerBase
								{
									OFFSET 0.000000 0.000000 0.000000
									CHANNELS 3 Zrotation Yrotation Xrotation
									JOINT RightHandIndex1
									{
										OFFSET -0.622530 -0.000000 -0.000000
										CHANNELS 3 Zrotation Yrotation Xrotation
										End Site
										{
											OFFSET 0.000000 0.000000 0.000000
										}
									}
								}
								JOINT RThumb
								{
									OFFSET 0.000000 0.000000 0.000000
									CHANNELS 3 Zrotation Yrotation Xrotation
									End Site
									{
										OFFSET 0.000000 0.000000 0.000000
									}
								}
							}
						}
					}
				}
			}
		}
	}
}
MOTION
Frames: 8
Frame Time: 0.008333
110.261475 342.270325 955.138123 173.769424 202.996201 181.612411 249.712341 207.093460 122.259430 194.618240 139.215576 -52.248764 34.418537 365.938446 528.961853 -0.030532 -145.341629 258.891296 30.495497 156.320267 821.574341 124.173180 28.468502 195.061096 1346.137939 927.449890 1645.459717 291.638977 325.984283 635.463074 231.057434 798.220825 412.058655 84.132599 159.518707 889.114258 184.531158 134.402344 395.020477 44.844650 138.334137 433.460114 290.631012 170.044647 927.269836 569.892090 463.494720 1050.932861 395.206848 492.056793 730.730408 278.794403 28.431847 313.359528 489.846283 451.609009 93.060699 1847.722046 827.381836 2278.589355 733.912903 943.391113 232.998840 96.174690 226.975891 2372.122803 1279.822021 1478.360352 513.664307 121.439743 0.000000 0.000000 1797.551270 2079.362549 809.093445 107.295647 131.791702 10.387321 936.356995 32.756287 571.750549 441.253143 363.179993 221.624603 17.581789 26.369276 -22.276907 586.567444 448.935822 359.366150 3.785105 0.000000 0.000000 -294.973145 -153.332993 -1424.308472
112.298187 346.092041 967.289246 176.190048 205.163940 184.225174 252.171371 209.253799 124.913589 201.703537 145.565994 -44.538601 36.557312 371.420197 538.035217 1.132127 -140.597046 270.880768 32.881588 164.877869 845.231628 131.960129 31.270384 200.279510 1361.377808 936.596375 1659.190552 293.643188 329.807861 646.623047 233.635941 807.062317 428.247223 85.687004 164.543320 912.267151 188.814697 137.412598 403.485260 48.312313 143.225372 439.566925 294.291687 172.345169 937.758118 578.382996 469.546173 1063.353149 398.123993 494.892029 737.703430 280.201080 28.756081 315.506561 491.612732 451.891815 93.525597 1859.215332 834.774109 2295.945312 739.200806 948.429626 233.989059 96.842278 228.202454 2375.707275 1280.434937 1476.436768 512.815979 120.916061 0.000000 0.000000 1772.003418 2070.817871 794.112671 105.465508 131.546707 11.059715 948.574707 32.497120 575.713745 440.412720 360.163727 221.189423 17.414522 25.944876 -26.075813 595.145569 450.614899 356.108154 3.352778 0.000000 0.000000 -365.305054 -188.596436 -1482.301392
114.029221 349.723480 980.054077 178.997284 208.004593 187.951797 255.947739 211.230728 127.499657 207.855896 150.304642 -38.015617 38.551006 375.051117 543.419495 1.751962 -138.980270 281.319397 35.081131 173.967712 872.996887 141.474869 34.583008 207.088821 1381.179565 947.650085 1678.356445 296.330963 334.078674 662.099304 237.463959 818.501892 446.163879 87.043991 167.534210 934.041382 193.058746 140.363647 412.208008 51.571903 148.084015 446.649567 298.933289 175.065704 948.670105 586.841187 475.790283 1072.789795 399.873993 496.092438 740.843811 279.607605 27.914040 316.325562 491.590881 451.647125 94.055595 1865.604126 840.950623 2319.441650 745.540710 956.462952 235.635178 97.590698 229.348953 2376.154785 1277.772339 1464.169678 508.096252 119.877556 0.000000 0.000000 1743.385132 2056.687500 774.670349 102.724243 130.682159 11.614406 959.207153 32.343910 580.014099 441.413513 359.730896 221.175446 17.124603 25.453842 -31.608036 584.751587 449.285339 340.129547 2.597721 0.000000 0.000000 -451.187653 -230.085327 -1539.526611
115.766251 353.485382 993.523010 182.019226 211.310806 192.205200 260.050354 213.099777 129.864243 213.750351 154.446167 -31.847477 40.432808 377.630432 547.522461 2.063471 -138.999832 289.548950 36.965210 181.661545 897.192444 148.313812 36.865284 213.215149 1398.768311 957.145508 1694.382202 298.611084 337.459015 674.828552 240.853561 827.175171 460.516968 88.152290 169.105591 951.348083 196.739227 142.922394 419.626373 54.455658 152.455231 453.151733 303.140747 177.888290 960.188721 596.350891 482.805664 1082.923584 402.126923 497.534210 744.037354 279.378021 27.153051 317.622101 492.335327 452.141022 94.817200 1874.032471 847.297363 2339.550537 750.663147 963.903442 237.088898 98.433594 230.681198 2379.643555 1276.949097 1451.364746 502.764038 118.832886 0.000000 0.000000 1717.830811 2047.351685 762.486023 101.787254 130.629959 12.064688 966.570618 30.222776 584.087036 443.443665 358.996002 220.605484 16.763880 24.973648 -36.801292 567.295227 444.146362 309.608063 1.577496 0.000000 0.000000 -527.674194 -268.112610 -1595.585693
117.359955 357.237885 1005.699890 185.131622 214.773773 195.806732 263.883789 215.130981 131.852570 218.036392 157.437515 -27.232607 42.195744 380.089172 550.814331 2.052305 -139.165634 297.229431 38.740067 189.146515 921.248535 154.460876 38.513092 218.567932 1413.204712 964.884888 1708.353271 300.772430 339.650757 682.314880 243.065002 827.344299 467.622192 88.694626 169.153809 963.396606 199.406189 145.414917 427.855560 57.285011 156.621353 460.034821 307.276672 180.952515 971.574951 605.476501 489.917297 1092.297119 404.233063 499.119354 746.508911 278.513458 26.343288 318.733276 493.620361 453.456207 95.779518 1887.401489 853.858032 2358.786133 756.008911 972.110718 239.135300 99.488258 232.589737 2390.813721 1279.970825 1445.616699 498.600616 117.910751 0.000000 0.000000 1703.380981 2049.957275 762.263489 101.899414 131.101501 12.459972 973.086975 28.045780 587.311707 447.486786 361.279755 222.529373 16.791454 24.631493 -41.359062 544.534363 437.573181 284.848969 0.532882 0.000000 0.000000 -595.981506 -297.496094 -1636.177612
119.265274 361.435059 1020.201050 188.466034 218.325577 199.043640 267.047089 217.078659 133.578278 222.622925 161.243851 -19.639801 44.332531 383.089447 555.974487 1.919491 -138.720352 306.292419 40.609634 196.698242 945.276794 160.225754 39.710510 223.528763 1428.009766 973.406738 1724.483521 303.131622 342.687714 692.428711 245.696091 828.509766 471.389465 88.656700 167.610886 968.596375 199.288040 146.292297 431.851868 59.027866 159.722733 465.000397 310.410492 183.582214 980.520264 612.300781 495.673492 1099.223633 405.614868 500.159149 748.100342 276.578644 24.747019 317.891907 492.954559 453.869690 96.459496 1891.324341 856.670837 2368.692139 758.949646 978.734436 240.569626 100.364532 234.134247 2397.254883 1281.791138 1439.924683 493.392456 117.069481 0.000000 0.000000 1699.180786 2058.637939 766.638550 103.473343 132.504623 13.608728 989.250732 27.328815 591.614868 450.800293 363.826965 224.315170 16.750162 24.256500 -45.442318 537.821655 434.950378 245.681931 -0.903161 0.000000 0.000000 -658.757202 -320.891510 -1667.703003
121.077309 365.086945 1030.911743 191.148163 220.803192 201.729980 269.383484 218.861679 135.381851 226.919540 165.448303 -12.789983 46.463142 386.579346 560.748413 1.757801 -138.208160 315.019623 42.351406 203.693085 966.137512 164.668686 40.564728 227.903214 1440.664551 978.757935 1733.680298 304.211304 344.208038 697.028198 247.245911 828.721985 476.035645 88.712440 165.962265 973.806580 199.558197 147.759460 437.956818 61.172806 162.656494 468.940460 312.577911 185.522720 987.712158 618.054810 500.863312 1106.891724 407.268829 501.966461 750.631714 276.603027 24.500587 318.501251 494.058685 455.029205 97.165451 1897.330688 860.127563 2378.591064 761.968201 986.662598 242.092957 101.236145 235.590240 2405.076416 1286.079590 1438.904419 491.696014 116.742310 0.000000 0.000000 1704.918213 2072.129883 776.017273 104.035828 132.042816 14.205082 998.253845 24.177397 592.831787 449.334808 362.571594 224.559967 16.540323 23.856508 -49.790157 536.861145 435.617950 212.426132 -2.093082 0.000000 0.000000 -737.547668 -359.981689 -1728.041138
122.857231 368.670044 1041.089722 193.542862 222.488937 203.911407 271.298889 220.457657 137.001205 229.850189 168.853668 -7.897148 48.328018 389.508789 563.828125 1.598267 -137.666031 324.506012 44.209576 210.919144 989.131042 170.884598 42.214123 233.362839 1457.816772 986.896851 1746.425171 305.968567 346.979126 705.206055 249.652649 829.432556 477.982117 88.490105 163.962677 976.111084 198.813110 148.628113 442.737396 62.739685 164.902451 471.906555 314.078339 187.534332 994.702820 622.954956 505.639801 1113.544434 408.829834 503.573212 752.752380 276.899780 24.246544 319.095764 494.729279 456.205078 97.877060 1902.381104 862.918701 2387.905273 764.557617 993.401062 243.427338 101.988983 236.938141 2412.495117 1290.791260 1440.439209 490.785217 116.618553 0.000000 0.000000 1717.630737 2088.010986 784.200806 104.526886 132.088730 15.145542 1010.753479 20.881788 593.903748 447.081390 360.854675 224.377609 16.329597 23.343534 -54.946182 536.501160 439.227814 187.174866 -3.171095 0.000000 0.000000 -819.835510 -403.002686 -1773.747437
